<svg width="1278" height="124" viewBox="0 0 1278 124" fill="none" xmlns="http://www.w3.org/2000/svg">
<path d="M1216 0.719933L1216 122L1277.85 122L1277.85 0.71993L1216 0.719933Z" fill="#FF2E60"/>
<path d="M1260.67 77.6593C1252.54 70.5817 1240.03 71.232 1232.73 79.1119C1225.42 86.9917 1226.09 99.1172 1234.23 106.195C1242.36 113.272 1254.87 112.622 1262.17 104.742C1269.48 96.8624 1268.81 84.737 1260.67 77.6593Z" fill="white"/>
<path d="M1261.4 17.7288C1253.67 10.2393 1241.14 10.2393 1233.42 17.7288C1225.69 25.2183 1225.69 37.3612 1233.42 44.8507C1241.14 52.3402 1253.67 52.3402 1261.4 44.8507C1269.13 37.3612 1269.13 25.2183 1261.4 17.7288Z" fill="white"/>
<path d="M965 121.34V1H1089.86C1089.48 67.5175 1033.73 121.33 965 121.33V121.34Z" fill="#00B1D1"/>
<path d="M965.04 60.8309V1.00977H1027.44C1027.09 34.1135 999.3 60.8309 965.04 60.8309Z" fill="#FFBC1D"/>
<path d="M1152.64 122.435C1187.23 122.435 1215.28 95.2526 1215.28 61.7322H1090C1090 95.2526 1118.04 122.435 1152.64 122.435Z" fill="#FFBC1D"/>
<path d="M1215.28 61.7321V1L1090 1V61.7321L1215.28 61.7321Z" fill="#00B1D1"/>
<path d="M1152.5 95.4851C1171.83 95.4851 1187.5 80.2996 1187.5 61.5674C1187.5 42.8351 1171.83 27.6497 1152.5 27.6497C1133.17 27.6497 1117.5 42.8351 1117.5 61.5674C1117.5 80.2996 1133.17 95.4851 1152.5 95.4851Z" fill="#FF2E60"/>
<path d="M902.924 61.6362C902.924 61.6362 904.394 90.6698 887.314 107.047C870.234 123.434 841.034 121.981 841.034 121.981C841.034 121.981 839.524 93.9744 856.604 77.5873C873.684 61.2002 902.924 61.6265 902.924 61.6265V61.6362Z" fill="#FF2E60"/>
<path d="M965.204 1.01073C965.204 1.01073 966.674 30.0443 949.594 46.4217C932.514 62.8088 903.314 61.3552 903.314 61.3552C903.314 61.3552 901.804 33.3489 918.884 16.9618C935.964 0.57465 965.204 1.00104 965.204 1.00104V1.01073Z" fill="#FF2E60"/>
<path d="M840.71 1L778 61.5092L840.65 122.212L840.71 1Z" fill="#476ACA"/>
<path d="M630.49 122.6L505 1V122.6H630.49Z" fill="#341A65"/>
<path d="M555.521 95.1181C557.284 84.665 549.968 74.8064 539.182 73.0984C528.395 71.3904 518.222 78.4797 516.459 88.9328C514.697 99.3859 522.012 109.244 532.799 110.953C543.586 112.661 553.759 105.571 555.521 95.1181Z" fill="#476ACA"/>
<path d="M716.61 1H588L652.31 63.302L716.61 1Z" fill="#FF2E60"/>
<path d="M652.31 63.302L652.65 122.212L777.65 1H716.61L652.31 63.302Z" fill="#00B1D1"/>
<path d="M251 122L376.41 122V0.865288L251 0.865288V122Z" fill="#FFBC1D"/>
<path d="M376.41 62.8467V123.085H313.91C314.1 89.787 342.01 62.8467 376.41 62.8467Z" fill="#341A65"/>
<path d="M376.39 93.1594V123.104H345.15C345.33 106.533 359.24 93.1594 376.39 93.1594Z" fill="#00B1D1"/>
<path d="M314.08 123.104L251 123.104V1.96905C285.81 1.96905 314.08 29.3649 314.08 63.0985V123.104Z" fill="#476ACA"/>
<path d="M359.152 46.0614C366.88 38.5719 366.88 26.4291 359.152 18.9396C351.423 11.4501 338.893 11.4501 331.164 18.9396C323.436 26.4291 323.436 38.5719 331.164 46.0614C338.893 53.5509 351.423 53.5509 359.152 46.0614Z" fill="#FF2E60"/>
<path d="M250.72 61.703C250.72 95.2234 222.67 122.406 188.08 122.406V1C222.67 1 250.72 28.1729 250.72 61.703Z" fill="#476ACA"/>
<path d="M188.08 1H125V122.406H188.08V1Z" fill="#FF2E60"/>
<path d="M187.91 95.4541C207.24 95.4541 222.91 80.2686 222.91 61.5364C222.91 42.8041 207.24 27.6187 187.91 27.6187C168.58 27.6187 152.91 42.8041 152.91 61.5364C152.91 80.2686 168.58 95.4541 187.91 95.4541Z" fill="#341A65"/>
<path d="M438.924 61.3943C438.924 61.3943 440.394 90.4278 423.314 106.805C406.234 123.192 377.034 121.739 377.034 121.739C377.034 121.739 375.524 93.7324 392.604 77.3453C409.684 60.9582 438.924 61.3846 438.924 61.3846V61.3943Z" fill="#FFBC1D"/>
<path d="M377.034 1.01098C377.034 1.01098 375.564 30.0445 392.644 46.422C409.724 62.8091 438.924 61.3554 438.924 61.3554C438.924 61.3554 440.434 33.3491 423.354 16.962C406.274 0.57489 377.034 1.00129 377.034 1.00129V1.01098Z" fill="#FF2E60"/>
<path d="M438.984 61.3943C438.984 61.3943 437.514 90.4278 454.594 106.805C471.674 123.192 500.874 121.739 500.874 121.739C500.874 121.739 502.384 93.7324 485.304 77.3453C468.224 60.9582 438.984 61.3846 438.984 61.3846V61.3943Z" fill="#FFBC1D"/>
<path d="M500.874 1.01098C500.874 1.01098 502.344 30.0445 485.264 46.422C468.184 62.8091 438.984 61.3554 438.984 61.3554C438.984 61.3554 437.474 33.3491 454.554 16.962C471.634 0.57489 500.874 1.00129 500.874 1.00129V1.01098Z" fill="#FF2E60"/>
<path d="M61.9241 61.363C61.9241 61.363 63.3941 90.3966 46.3141 106.774C29.2341 123.151 0.0340873 121.707 0.0340873 121.707C0.0340873 121.707 -1.47591 93.7012 15.6041 77.314C32.6841 60.9269 61.9241 61.3533 61.9241 61.3533V61.363Z" fill="#00B1D1"/>
<path d="M0.034083 0.979738C0.034083 0.979738 -1.43593 30.0133 15.6441 46.3907C32.7241 62.7778 61.9241 61.3242 61.9241 61.3242C61.9241 61.3242 63.4341 33.3179 46.3541 16.9307C29.2741 0.543644 0.034083 0.970037 0.034083 0.970037V0.979738Z" fill="#476ACA"/>
<path d="M61.9841 61.363C61.9841 61.363 60.5141 90.3966 77.5941 106.774C94.6741 123.161 123.874 121.707 123.874 121.707C123.874 121.707 125.384 93.7012 108.304 77.314C91.2241 60.9269 61.9841 61.3533 61.9841 61.3533V61.363Z" fill="#00B1D1"/>
<path d="M123.874 0.979738C123.874 0.979738 125.344 30.0133 108.264 46.3907C91.1841 62.7778 61.9841 61.3242 61.9841 61.3242C61.9841 61.3242 60.4741 33.3179 77.5541 16.9307C94.6341 0.543644 123.874 0.970037 123.874 0.970037V0.979738Z" fill="#476ACA"/>
</svg>
