<svg width="1278" height="125" viewBox="0 0 1278 125" fill="none" xmlns="http://www.w3.org/2000/svg">
<path d="M1216 0.0451508L1216 123.551L1277.85 123.551L1277.85 0.0451481L1216 0.0451508Z" fill="#FF2E60"/>
<path d="M1260.67 78.3962C1252.54 71.1887 1240.03 71.851 1232.73 79.8754C1225.42 87.8998 1226.09 100.248 1234.23 107.455C1242.36 114.663 1254.87 114.001 1262.17 105.976C1269.48 97.9516 1268.81 85.6037 1260.67 78.3962Z" fill="white"/>
<path d="M1261.4 17.3661C1253.67 9.73922 1241.14 9.73922 1233.42 17.3661C1225.69 24.9931 1225.69 37.3587 1233.42 44.9857C1241.14 52.6126 1253.67 52.6126 1261.4 44.9857C1269.13 37.3587 1269.13 24.993 1261.4 17.3661Z" fill="white"/>
<path d="M965 122.878V0.330322H1089.86C1089.48 68.0683 1033.73 122.869 965 122.869V122.878Z" fill="#00B1D1"/>
<path d="M965.04 61.2589V0.340088H1027.44C1027.09 34.0512 999.3 61.2589 965.04 61.2589Z" fill="#FFBC1D"/>
<path d="M1152.64 123.994C1187.23 123.994 1215.28 96.3122 1215.28 62.1768H1090C1090 96.3122 1118.04 123.994 1152.64 123.994Z" fill="#FFBC1D"/>
<path d="M1215.28 62.1768V0.330322L1090 0.330322V62.1768L1215.28 62.1768Z" fill="#00B1D1"/>
<path d="M1152.5 96.5491C1171.83 96.5491 1187.5 81.085 1187.5 62.0091C1187.5 42.9331 1171.83 27.469 1152.5 27.469C1133.17 27.469 1117.5 42.9331 1117.5 62.0091C1117.5 81.085 1133.17 96.5491 1152.5 96.5491Z" fill="#FF2E60"/>
<path d="M902.924 62.0791C902.924 62.0791 904.394 91.6454 887.314 108.323C870.234 125.011 841.034 123.531 841.034 123.531C841.034 123.531 839.524 95.0105 856.604 78.3228C873.684 61.635 902.924 62.0692 902.924 62.0692V62.0791Z" fill="#FF2E60"/>
<path d="M965.204 0.341248C965.204 0.341248 966.674 29.9075 949.594 46.5855C932.514 63.2732 903.314 61.793 903.314 61.793C903.314 61.793 901.804 33.2727 918.884 16.585C935.964 -0.102833 965.204 0.331385 965.204 0.331385V0.341248Z" fill="#FF2E60"/>
<path d="M840.71 0.330322L778 61.9498L840.65 123.767L840.71 0.330322Z" fill="#476ACA"/>
<path d="M630.49 124.161L505 0.330322V124.161H630.49Z" fill="#341A65"/>
<path d="M555.521 96.1756C557.284 85.5306 549.968 75.4912 539.182 73.7519C528.395 72.0125 518.222 79.2319 516.459 89.8768C514.697 100.522 522.012 110.561 532.799 112.301C543.586 114.04 553.759 106.82 555.521 96.1756Z" fill="#476ACA"/>
<path d="M716.61 0.330322H588L652.31 63.7755L716.61 0.330322Z" fill="#FF2E60"/>
<path d="M652.31 63.7755L652.65 123.767L777.65 0.330322H716.61L652.31 63.7755Z" fill="#00B1D1"/>
<path d="M251 123.551L376.41 123.551V0.193169L251 0.193169V123.551Z" fill="#FFBC1D"/>
<path d="M376.41 63.3118V124.655H313.91C314.1 90.7464 342.01 63.3118 376.41 63.3118Z" fill="#341A65"/>
<path d="M376.39 94.1807V124.675H345.15C345.33 107.799 359.24 94.1807 376.39 94.1807Z" fill="#00B1D1"/>
<path d="M314.08 124.675L251 124.675V1.31719C285.81 1.31719 314.08 29.2157 314.08 63.5683V124.675Z" fill="#476ACA"/>
<path d="M359.151 46.2187C366.88 38.5918 366.88 26.2261 359.151 18.5992C351.423 10.9723 338.893 10.9723 331.164 18.5992C323.436 26.2261 323.436 38.5918 331.164 46.2187C338.893 53.8456 351.423 53.8456 359.151 46.2187Z" fill="#FF2E60"/>
<path d="M250.72 62.1472C250.72 96.2826 222.67 123.964 188.08 123.964V0.330322C222.67 0.330322 250.72 28.0018 250.72 62.1472Z" fill="#476ACA"/>
<path d="M188.08 0.330322H125V123.964H188.08V0.330322Z" fill="#FF2E60"/>
<path d="M187.91 96.5174C207.24 96.5174 222.91 81.0533 222.91 61.9773C222.91 42.9014 207.24 27.4373 187.91 27.4373C168.58 27.4373 152.91 42.9014 152.91 61.9773C152.91 81.0533 168.58 96.5174 187.91 96.5174Z" fill="#341A65"/>
<path d="M438.924 61.8327C438.924 61.8327 440.394 91.399 423.314 108.077C406.234 124.765 377.034 123.284 377.034 123.284C377.034 123.284 375.524 94.7642 392.604 78.0764C409.684 61.3886 438.924 61.8228 438.924 61.8228V61.8327Z" fill="#FFBC1D"/>
<path d="M377.034 0.3415C377.034 0.3415 375.564 29.9078 392.644 46.5857C409.724 63.2735 438.924 61.7932 438.924 61.7932C438.924 61.7932 440.434 33.273 423.354 16.5852C406.274 -0.102592 377.034 0.331629 377.034 0.331629V0.3415Z" fill="#FF2E60"/>
<path d="M438.984 61.8327C438.984 61.8327 437.514 91.399 454.594 108.077C471.674 124.765 500.874 123.284 500.874 123.284C500.874 123.284 502.384 94.7642 485.304 78.0764C468.224 61.3886 438.984 61.8228 438.984 61.8228V61.8327Z" fill="#FFBC1D"/>
<path d="M500.874 0.3415C500.874 0.3415 502.344 29.9078 485.264 46.5857C468.184 63.2735 438.984 61.7932 438.984 61.7932C438.984 61.7932 437.474 33.273 454.554 16.5852C471.634 -0.102592 500.874 0.331629 500.874 0.331629V0.3415Z" fill="#FF2E60"/>
<path d="M61.9241 61.801C61.9241 61.801 63.3941 91.3673 46.3141 108.045C29.2341 124.723 0.0340873 123.253 0.0340873 123.253C0.0340873 123.253 -1.47591 94.7325 15.6041 78.0447C32.6841 61.3569 61.9241 61.7911 61.9241 61.7911V61.801Z" fill="#00B1D1"/>
<path d="M0.0341441 0.309769C0.0341441 0.309769 -1.43587 29.8761 15.6441 46.554C32.7241 63.2418 61.9242 61.7615 61.9242 61.7615C61.9242 61.7615 63.4342 33.2412 46.3542 16.5535C29.2742 -0.134327 0.0341441 0.299891 0.0341441 0.299891V0.309769Z" fill="#476ACA"/>
<path d="M61.9843 61.801C61.9843 61.801 60.5143 91.3673 77.5943 108.045C94.6743 124.733 123.874 123.253 123.874 123.253C123.874 123.253 125.384 94.7325 108.304 78.0447C91.2243 61.3569 61.9843 61.7911 61.9843 61.7911V61.801Z" fill="#00B1D1"/>
<path d="M123.874 0.309769C123.874 0.309769 125.344 29.8761 108.264 46.554C91.1843 63.2418 61.9843 61.7615 61.9843 61.7615C61.9843 61.7615 60.4743 33.2412 77.5543 16.5535C94.6343 -0.134327 123.874 0.299891 123.874 0.299891V0.309769Z" fill="#476ACA"/>
</svg>
